<svg width="291" height="266" viewBox="0 0 291 266" fill="none" xmlns="http://www.w3.org/2000/svg">
<path d="M274.835 217.533C276.907 217.533 278.586 215.854 278.586 213.782C278.586 211.71 276.907 210.031 274.835 210.031C272.763 210.031 271.084 211.71 271.084 213.782C271.084 215.854 272.763 217.533 274.835 217.533Z" fill="url(#paint0_linear_2_51)"/>
<path d="M219.18 7.65036C221.252 7.65036 222.931 5.97087 222.931 3.89912C222.931 1.82738 221.252 0.147888 219.18 0.147888C217.108 0.147888 215.429 1.82738 215.429 3.89912C215.429 5.97087 217.108 7.65036 219.18 7.65036Z" fill="url(#paint1_linear_2_51)"/>
<path d="M29.5968 164.282C29.9288 162.237 28.5401 160.31 26.4951 159.978C24.4501 159.646 22.5233 161.035 22.1913 163.08C21.8594 165.125 23.248 167.051 25.293 167.383C27.338 167.715 29.2649 166.327 29.5968 164.282Z" fill="url(#paint2_linear_2_51)"/>
<path fill-rule="evenodd" clip-rule="evenodd" d="M275.797 213.641L273.822 212.087C271.92 214.349 269.954 216.525 267.925 218.618C256.251 230.868 242.252 240.67 226.747 247.45C211.242 254.23 194.542 257.852 177.621 258.106C152.367 258.473 127.589 251.223 106.516 237.3C93.1811 228.424 81.5576 216.959 73.5796 202.989C60.8783 180.746 56.9155 153.568 63.9214 128.789C60.7039 151.999 66.4882 175.56 80.0885 194.641C90.8138 209.699 105.988 220.657 122.969 227.663C154.733 240.798 191.601 237.966 221.241 220.625C246.031 206.128 263.297 181.687 272.173 154.688C282.128 123.914 280.645 90.5816 267.999 60.8122C257.573 36.6628 240.159 16.1862 217.997 2.01825L216.602 4.13162C220.376 6.80055 224.01 9.66453 227.486 12.7119C250.576 32.8865 265.558 60.7566 269.649 91.1446C273.74 121.533 266.662 152.373 249.729 177.935C240.785 191.373 228.668 202.401 214.449 210.044C200.23 217.687 184.348 221.709 168.206 221.756C133.43 221.629 97.7247 202.133 85.7841 168.203C74.5516 136.186 86.9361 93.4111 121.046 81.2381C112.861 87.2561 106.205 95.1142 101.616 104.178C97.0275 113.242 94.634 123.258 94.6287 133.417C94.7804 147.214 98.7763 160.695 106.168 172.345C112.264 182.059 120.422 190.312 130.064 196.521C139.706 202.73 150.595 206.742 161.96 208.273C184.457 211.231 207.969 203.56 225.753 189.823C236.162 181.738 244.724 171.521 250.863 159.858C257.003 148.194 260.579 135.353 261.352 122.195C262.589 98.6205 254.368 74.4752 240.494 55.4549C224.14 33.128 200.063 17.6848 172.95 12.1308C154.881 8.4641 136.072 9.81662 118.436 14.9944C96.8187 21.2493 77.1377 32.8759 61.227 48.7903C45.3164 64.7046 33.6945 84.3884 27.4446 106.007C21.9449 125.245 20.9219 145.487 24.4541 165.181L26.9374 164.78C26.3636 160.387 26.0109 155.968 25.8807 151.539C25.279 129.239 30.4746 107.164 40.9596 87.4724C55.1255 61.0059 78.2758 40.4674 106.241 29.5555C130.524 20.1827 157.079 18.4709 181.742 27.4422C210.209 37.8082 233.139 62.112 241.275 91.3505C245.84 107.697 246.157 124.763 240.219 140.814C234.579 156.001 224.139 168.934 210.483 177.65C214.216 173.125 217.444 168.207 220.11 162.983C224.79 153.627 227.544 143.426 228.21 132.986C228.876 122.546 227.44 112.078 223.988 102.203C217.035 82.3898 202.157 66.9516 183.601 57.5683C172.344 51.9147 160.052 48.6139 147.476 47.8672C134.901 47.1205 122.306 48.9437 110.458 53.2253C87.3376 61.6788 69.6487 79.093 58.5007 100.776C48.614 120.197 44.6969 142.11 47.243 163.754C49.7891 185.398 58.684 205.804 72.8078 222.401C85.0864 237.046 102.004 248.184 119.513 255.496C138.42 263.366 158.889 266.763 179.324 265.422C199.759 264.08 219.609 258.036 237.324 247.761C252.202 238.939 265.26 227.358 275.797 213.641ZM178.202 91.3504C177.921 90.7676 177.566 90.224 177.145 89.7336C175.581 87.895 164.93 83.9642 157.501 89.8077C156.301 90.7302 155.25 91.8313 154.384 93.0728L149.145 101.249C148.549 101.22 147.94 101.2 147.315 101.188C142.38 101.093 133.324 101.04 123.603 105.859C121.904 106.705 120.263 107.662 118.689 108.723C123.091 107.363 127.619 106.453 132.204 106.007C136.83 105.557 141.484 105.555 146.102 105.998L135.955 121.836C135.674 122.164 135.439 122.53 135.258 122.923L113.173 157.393C111.704 159.676 112.084 161.546 114.018 161.546H125.283C127.174 161.546 129.964 159.623 131.401 157.319L145.28 135.149L145.323 135.17L145.413 135.214C148.713 136.838 152.146 138.178 155.673 139.219C159.966 140.559 164.36 141.515 168.801 142.081L171.154 157.277C171.513 159.612 173.383 161.504 175.306 161.504H186.37C188.303 161.504 189.572 159.581 189.202 157.277L186.755 142.228C189.814 141.837 192.827 141.127 195.743 140.106C198.694 139.177 201.362 137.516 203.499 135.277C204.899 133.803 205.658 131.836 205.612 129.803C205.526 128.363 205.095 126.964 204.355 125.725C202.766 123.067 200.686 120.736 198.226 118.856C194.948 116.251 191.385 114.025 187.606 112.22C185.575 111.236 183.514 110.316 181.426 109.462L178.825 93.4638C178.719 92.7331 178.509 92.0214 178.202 91.3504ZM162.49 108.865C162.754 108.933 163.019 109.003 163.283 109.074C163.585 109.343 163.812 109.846 163.926 110.582L168.275 138.68C166.802 138.58 165.333 138.411 163.873 138.172C158.777 137.421 153.803 136 149.079 133.946C148.291 133.587 147.514 133.207 146.748 132.805L160.66 110.582C161.297 109.552 161.94 108.981 162.49 108.865ZM185.752 136.064L182.694 117.258C184.721 118.518 186.605 119.996 188.314 121.667C189.696 122.957 190.732 124.574 191.326 126.369C191.706 127.499 191.784 128.709 191.553 129.879C191.321 131.048 190.787 132.137 190.005 133.037C189.044 134.127 187.882 135.021 186.581 135.668C186.307 135.805 186.031 135.936 185.752 136.064ZM131.073 118.518C131.004 118.521 130.936 118.525 130.867 118.531C129.283 118.449 127.782 117.783 126.657 116.658C125.472 115.473 124.797 113.873 124.775 112.199C124.649 113.911 123.896 115.517 122.662 116.711C121.505 117.784 120.011 118.423 118.435 118.518C119.381 118.577 120.304 118.829 121.149 119.258C121.994 119.687 122.743 120.284 123.349 121.012C124.204 122.109 124.696 123.447 124.754 124.837C124.788 123.432 125.274 122.076 126.139 120.969C126.747 120.242 127.5 119.649 128.35 119.227C129.137 118.836 129.992 118.6 130.867 118.531C130.95 118.535 131.033 118.538 131.116 118.539L131.073 118.518Z" fill="url(#paint3_linear_2_51)"/>
<path d="M27.0957 110.508C27.2645 108.586 28.1049 106.785 29.4691 105.421C30.8332 104.057 32.6341 103.217 34.5559 103.048L50.512 101.653L34.5559 100.248C32.6341 100.079 30.8332 99.2385 29.4691 97.8743C28.1049 96.5102 27.2645 94.7092 27.0957 92.7873L25.701 76.842L24.2956 92.7873C24.1311 94.709 23.2937 96.511 21.9309 97.8757C20.5681 99.2405 18.767 100.08 16.8456 100.248L0.890076 101.653L16.8456 103.048C18.767 103.215 20.5681 104.055 21.9309 105.42C23.2937 106.784 24.1311 108.586 24.2956 110.508L25.701 126.453L27.0957 110.508Z" fill="url(#paint4_linear_2_51)"/>
<path d="M246.886 249.79C247.055 247.868 247.896 246.067 249.26 244.703C250.624 243.339 252.425 242.498 254.347 242.329L270.292 240.935L254.283 239.561C252.361 239.394 250.558 238.555 249.194 237.19C247.829 235.825 246.99 234.023 246.823 232.101L245.417 216.155L244.023 232.101C243.856 234.023 243.016 235.825 241.652 237.19C240.287 238.555 238.485 239.394 236.562 239.561L220.617 240.966L236.562 242.361C238.484 242.53 240.285 243.37 241.649 244.734C243.013 246.099 243.854 247.899 244.023 249.821L245.417 265.767L246.886 249.79Z" fill="url(#paint5_linear_2_51)"/>
<path d="M267.629 55.3916C267.674 53.4627 268.399 51.6117 269.675 50.1641C270.95 48.7164 272.695 47.765 274.603 47.4771L290.453 45.0784L274.445 44.6874C272.516 44.6398 270.666 43.9148 269.219 42.6396C267.772 41.3643 266.82 39.6203 266.53 37.7133L264.131 21.863L263.741 37.8613C263.697 39.7908 262.973 41.643 261.697 43.091C260.421 44.5391 258.675 45.4899 256.766 45.7758L240.916 48.1851L256.925 48.5761C258.853 48.6237 260.703 49.3487 262.15 50.6239C263.598 51.8991 264.55 53.6432 264.84 55.5502L267.238 71.4004L267.629 55.3916Z" fill="url(#paint6_linear_2_51)"/>
<defs>
<linearGradient id="paint0_linear_2_51" x1="274.835" y1="210.031" x2="274.835" y2="217.533" gradientUnits="userSpaceOnUse">
<stop stop-color="#F89E1F"/>
<stop offset="1" stop-color="#FB6D05"/>
</linearGradient>
<linearGradient id="paint1_linear_2_51" x1="219.18" y1="0.147888" x2="219.18" y2="7.65036" gradientUnits="userSpaceOnUse">
<stop stop-color="#F89E1F"/>
<stop offset="1" stop-color="#FB6D05"/>
</linearGradient>
<linearGradient id="paint2_linear_2_51" x1="22.1914" y1="163.08" x2="29.5969" y2="164.282" gradientUnits="userSpaceOnUse">
<stop stop-color="#F89E1F"/>
<stop offset="1" stop-color="#FB6D05"/>
</linearGradient>
<linearGradient id="paint3_linear_2_51" x1="150.545" y1="2.01825" x2="150.545" y2="265.707" gradientUnits="userSpaceOnUse">
<stop stop-color="#F89E1F"/>
<stop offset="1" stop-color="#FB6D05"/>
</linearGradient>
<linearGradient id="paint4_linear_2_51" x1="25.701" y1="76.842" x2="25.701" y2="126.453" gradientUnits="userSpaceOnUse">
<stop stop-color="#F89E1F"/>
<stop offset="1" stop-color="#FB6D05"/>
</linearGradient>
<linearGradient id="paint5_linear_2_51" x1="245.455" y1="216.155" x2="245.455" y2="265.767" gradientUnits="userSpaceOnUse">
<stop stop-color="#F89E1F"/>
<stop offset="1" stop-color="#FB6D05"/>
</linearGradient>
<linearGradient id="paint6_linear_2_51" x1="265.685" y1="21.863" x2="265.685" y2="71.4004" gradientUnits="userSpaceOnUse">
<stop stop-color="#F89E1F"/>
<stop offset="1" stop-color="#FB6D05"/>
</linearGradient>
</defs>
</svg>
