<svg width="20" height="20" viewBox="0 0 20 20" fill="none" xmlns="http://www.w3.org/2000/svg">
<rect width="20" height="20" fill="white"/>
<mask id="path-2-inside-1_11_197" fill="white">
<path d="M16.9569 3.35131C16.9513 3.34 16.9421 3.33114 16.9309 3.32631C15.6342 2.70162 14.2658 2.25616 12.8599 2.00109C12.8472 1.9986 12.834 2.0004 12.8222 2.00623C12.8105 2.01207 12.8008 2.02164 12.7945 2.03359C12.6082 2.3887 12.439 2.75345 12.2877 3.12645C10.7723 2.88491 9.23083 2.88491 7.7154 3.12645C7.56307 2.7525 7.39121 2.38766 7.2006 2.03359C7.19406 2.0219 7.18432 2.01255 7.17265 2.00675C7.16098 2.00095 7.14791 1.99898 7.13516 2.00109C5.72916 2.25563 4.36067 2.70112 3.06412 3.32635C3.05302 3.33129 3.04366 3.33972 3.03732 3.35049C0.444487 7.41614 -0.265788 11.3818 0.0826486 15.2984C0.0836288 15.308 0.0864375 15.3173 0.0909076 15.3257C0.0953777 15.3342 0.101418 15.3416 0.108669 15.3475C1.61845 16.5213 3.30716 17.4172 5.10273 17.9971C5.11538 18.0011 5.12888 18.0009 5.14143 17.9966C5.15397 17.9923 5.16496 17.9841 5.1729 17.973C5.55855 17.422 5.90027 16.8386 6.19457 16.2286C6.19862 16.2203 6.20093 16.2111 6.20135 16.2017C6.20177 16.1923 6.2003 16.183 6.19702 16.1742C6.19375 16.1655 6.18875 16.1576 6.18235 16.151C6.17595 16.1445 6.16831 16.1394 6.15991 16.1362C5.62106 15.9197 5.09938 15.6587 4.59977 15.3557C4.5907 15.3501 4.58308 15.3423 4.57758 15.3328C4.57208 15.3234 4.56888 15.3127 4.56826 15.3017C4.56764 15.2906 4.56962 15.2796 4.57401 15.2696C4.57841 15.2595 4.5851 15.2508 4.59348 15.2441C4.69831 15.1616 4.80321 15.0758 4.90331 14.9892C4.9122 14.9815 4.92297 14.9766 4.93438 14.975C4.9458 14.9733 4.95742 14.9751 4.96794 14.9801C8.24104 16.5485 11.7846 16.5485 15.019 14.9801C15.0295 14.9748 15.0413 14.9728 15.0529 14.9743C15.0644 14.9757 15.0754 14.9806 15.0844 14.9884C15.1846 15.075 15.2894 15.1616 15.395 15.2441C15.4035 15.2507 15.4102 15.2594 15.4147 15.2694C15.4192 15.2794 15.4212 15.2904 15.4207 15.3015C15.4201 15.3125 15.417 15.3232 15.4116 15.3327C15.4061 15.3422 15.3986 15.3501 15.3895 15.3557C14.8911 15.6613 14.3689 15.9221 13.8286 16.1354C13.8203 16.1387 13.8126 16.1439 13.8063 16.1506C13.7999 16.1572 13.795 16.1652 13.7918 16.174C13.7886 16.1828 13.7872 16.1922 13.7877 16.2016C13.7881 16.2111 13.7905 16.2203 13.7946 16.2286C14.0939 16.8352 14.4351 17.4179 14.8155 17.972C14.8232 17.9834 14.8342 17.9919 14.8468 17.9964C14.8594 18.0009 14.873 18.0011 14.8857 17.997C16.6845 17.4191 18.3761 16.5231 19.8878 15.3475C19.8952 15.3419 19.9013 15.3347 19.9058 15.3263C19.9103 15.318 19.913 15.3088 19.9138 15.2992C20.331 10.7713 19.2155 6.83807 16.9569 3.35131Z"/>
</mask>
<path d="M16.9569 3.35131L15.6107 4.01296L15.6498 4.09246L15.6979 4.16681L16.9569 3.35131ZM16.9309 3.32631L16.2799 4.67767L16.3086 4.6915L16.3379 4.7041L16.9309 3.32631ZM12.8599 2.00109L12.5726 3.47331L12.5823 3.47522L12.5922 3.477L12.8599 2.00109ZM12.7945 2.03359L14.1228 2.73056L14.1232 2.7298L12.7945 2.03359ZM12.2877 3.12645L12.0516 4.60775L13.2294 4.79548L13.6777 3.69034L12.2877 3.12645ZM7.7154 3.12645L6.32622 3.69231L6.77546 4.7952L7.9515 4.60775L7.7154 3.12645ZM7.2006 2.03359L8.52136 1.32255L8.51567 1.31197L8.5098 1.30149L7.2006 2.03359ZM7.13516 2.00109L6.89031 0.521211L6.87912 0.523063L6.86795 0.525085L7.13516 2.00109ZM3.06412 3.32635L3.67412 4.69671L3.69504 4.6874L3.71567 4.67745L3.06412 3.32635ZM3.03732 3.35049L4.30202 4.15704L4.31638 4.13452L4.32993 4.11151L3.03732 3.35049ZM0.0826486 15.2984L-1.41145 15.4313L-1.41058 15.4411L-1.40959 15.4508L0.0826486 15.2984ZM0.108669 15.3475L-0.841465 16.5082L-0.826878 16.5202L-0.811996 16.5317L0.108669 15.3475ZM5.10273 17.9971L4.64173 19.4246L4.6521 19.4278L5.10273 17.9971ZM5.1729 17.973L6.3913 18.8479L6.39659 18.8406L6.40178 18.8331L5.1729 17.973ZM6.19457 16.2286L4.84395 15.5761L4.84361 15.5768L6.19457 16.2286ZM6.15991 16.1362L5.60073 17.5281L5.61105 17.5322L5.62144 17.5362L6.15991 16.1362ZM4.59977 15.3557L3.81187 16.6322L3.82191 16.6383L4.59977 15.3557ZM4.59348 15.2441L3.66605 14.0651L3.6581 14.0715L4.59348 15.2441ZM4.90331 14.9892L3.92213 13.8546L3.92164 13.855L4.90331 14.9892ZM4.96794 14.9801L5.61617 13.6273L5.60632 13.6227L4.96794 14.9801ZM15.019 14.9801L15.6735 16.3297L15.6812 16.326L15.6889 16.3222L15.019 14.9801ZM15.0844 14.9884L16.0659 13.854L16.0608 13.8496L15.0844 14.9884ZM15.395 15.2441L16.3215 14.0644L16.3182 14.0618L15.395 15.2441ZM15.3895 15.3557L16.1735 16.6346L16.1801 16.6305L16.1867 16.6264L15.3895 15.3557ZM13.8286 16.1354L13.2779 14.7402L13.2721 14.7425L13.8286 16.1354ZM13.7946 16.2286L12.4479 16.8893L12.4494 16.8923L13.7946 16.2286ZM14.8155 17.972L16.0563 17.1291L16.0521 17.123L14.8155 17.972ZM14.8857 17.997L14.4269 16.5689L14.4268 16.5689L14.8857 17.997ZM19.8878 15.3475L18.9754 14.1569L18.967 14.1634L19.8878 15.3475ZM19.9138 15.2992L18.4201 15.1616L18.4193 15.1715L19.9138 15.2992ZM18.3031 2.68966C18.1454 2.3688 17.8749 2.09958 17.524 1.94853L16.3379 4.7041C16.0093 4.56269 15.7573 4.3112 15.6107 4.01296L18.3031 2.68966ZM17.5819 1.97495C16.1646 1.29213 14.6673 0.804525 13.1277 0.525188L12.5922 3.477C13.8643 3.7078 15.1038 4.1111 16.2799 4.67767L17.5819 1.97495ZM13.1473 0.52888C12.8081 0.46266 12.4595 0.511494 12.1548 0.66292L13.4897 3.34955C13.2084 3.4893 12.8862 3.53454 12.5726 3.47331L13.1473 0.52888ZM12.1548 0.66292C11.8513 0.813721 11.6143 1.05417 11.4659 1.33738L14.1232 2.7298C13.9873 2.98911 13.7697 3.21041 13.4897 3.34955L12.1548 0.66292ZM11.4663 1.33662C11.2571 1.73522 11.0674 2.14439 10.8977 2.56257L13.6777 3.69034C13.8107 3.3625 13.9593 3.04218 14.1228 2.73056L11.4663 1.33662ZM12.5238 1.64515C10.852 1.37868 9.15114 1.37868 7.47929 1.64515L7.9515 4.60775C9.31051 4.39114 10.6926 4.39114 12.0516 4.60775L12.5238 1.64515ZM9.10457 2.5606C8.93214 2.13727 8.73746 1.72395 8.52136 1.32255L5.87984 2.74464C6.04497 3.05137 6.19401 3.36773 6.32622 3.69231L9.10457 2.5606ZM8.5098 1.30149C8.3601 1.03378 8.13011 0.807458 7.83984 0.663299L6.50546 3.3502C6.23853 3.21764 6.02802 3.01002 5.89139 2.7657L8.5098 1.30149ZM7.83984 0.663299C7.54847 0.518603 7.21655 0.467234 6.89031 0.521211L7.38 3.48097C7.07927 3.53073 6.77348 3.48331 6.50546 3.3502L7.83984 0.663299ZM6.86795 0.525085C5.3278 0.803905 3.8301 1.29167 2.41258 1.97524L3.71567 4.67745C4.89123 4.11056 6.13052 3.70735 7.40236 3.4771L6.86795 0.525085ZM2.45412 1.95598C2.14902 2.09179 1.90475 2.31763 1.74471 2.58947L4.32993 4.11151C4.18257 4.36181 3.95702 4.57078 3.67412 4.69671L2.45412 1.95598ZM1.77262 2.54394C-1.01293 6.91178 -1.78673 11.213 -1.41145 15.4313L1.57675 15.1655C1.25515 11.5506 1.90191 7.92051 4.30202 4.15704L1.77262 2.54394ZM-1.40959 15.4508C-1.38918 15.6507 -1.33049 15.8469 -1.23452 16.0281L1.41634 14.6234C1.50337 14.7877 1.55644 14.9654 1.57489 15.146L-1.40959 15.4508ZM-1.23452 16.0281C-1.13851 16.2093 -1.00605 16.3735 -0.841465 16.5082L1.0588 14.1868C1.20889 14.3097 1.32926 14.4591 1.41634 14.6234L-1.23452 16.0281ZM-0.811996 16.5317C0.833784 17.8112 2.67768 18.7902 4.64174 19.4245L5.56373 16.5697C3.93664 16.0443 2.40312 15.2313 1.02933 14.1633L-0.811996 16.5317ZM4.6521 19.4278C4.97111 19.5283 5.31362 19.5237 5.62944 19.415L4.65341 16.5782C4.94415 16.4782 5.25964 16.4739 5.55337 16.5664L4.6521 19.4278ZM5.62944 19.415C5.9443 19.3067 6.20734 19.1041 6.3913 18.8479L3.95451 17.0981C4.12257 16.864 4.36364 16.6779 4.65341 16.5782L5.62944 19.415ZM6.40178 18.8331C6.83398 18.2157 7.21645 17.5625 7.54554 16.8805L4.84361 15.5768C4.58409 16.1147 4.28312 16.6284 3.94402 17.1128L6.40178 18.8331ZM7.5452 16.8812C7.63851 16.688 7.69037 16.4796 7.69984 16.2691L4.70286 16.1343C4.71149 15.9426 4.75873 15.7525 4.84395 15.5761L7.5452 16.8812ZM7.69984 16.2691C7.7093 16.0586 7.67634 15.8471 7.60152 15.6476L4.79252 16.7009C4.72425 16.5189 4.69424 16.326 4.70286 16.1343L7.69984 16.2691ZM7.60152 15.6476C7.52665 15.4479 7.41037 15.2618 7.25609 15.1036L5.10861 17.1985C4.96712 17.0534 4.86084 16.8831 4.79252 16.7009L7.60152 15.6476ZM7.25609 15.1036C7.10158 14.9452 6.91226 14.8184 6.69839 14.7362L5.62144 17.5362C5.42435 17.4604 5.25033 17.3437 5.10861 17.1985L7.25609 15.1036ZM6.7191 14.7443C6.25646 14.5585 5.80787 14.3341 5.37763 14.0732L3.82191 16.6383C4.39088 16.9834 4.98565 17.281 5.60073 17.5281L6.7191 14.7443ZM5.38765 14.0793C5.59314 14.2062 5.75798 14.3793 5.87349 14.5775L3.28167 16.0882C3.40817 16.3053 3.58826 16.4941 3.81189 16.6322L5.38765 14.0793ZM5.87349 14.5775C5.98884 14.7753 6.05336 14.995 6.06589 15.2173L3.07064 15.3861C3.08441 15.6304 3.15533 15.8715 3.28167 16.0882L5.87349 14.5775ZM6.06589 15.2173C6.07841 15.4395 6.03893 15.6637 5.94803 15.8713L3.2 14.6678C3.1003 14.8955 3.05687 15.1418 3.07064 15.3861L6.06589 15.2173ZM5.94803 15.8713C5.85701 16.0791 5.71527 16.268 5.52886 16.4167L3.6581 14.0715C3.45493 14.2335 3.29981 14.4399 3.2 14.6678L5.94803 15.8713ZM5.52089 16.423C5.64034 16.3291 5.76382 16.2282 5.88498 16.1234L3.92164 13.855C3.8426 13.9235 3.75628 13.9942 3.66607 14.0652L5.52089 16.423ZM5.8845 16.1238C5.67999 16.3006 5.42442 16.4206 5.1445 16.4602L4.72427 13.4898C4.42151 13.5326 4.14442 13.6624 3.92213 13.8546L5.8845 16.1238ZM5.1445 16.4602C4.8643 16.4998 4.58121 16.4558 4.32955 16.3374L5.60632 13.6227C5.33364 13.4944 5.02731 13.4469 4.72427 13.4898L5.1445 16.4602ZM4.31972 16.3328C8.0002 18.0964 12.0234 18.0998 15.6735 16.3297L14.3645 13.6304C11.5459 14.9972 8.48189 15.0006 5.61615 13.6274L4.31972 16.3328ZM15.6889 16.3222C15.4363 16.4482 15.1493 16.4986 14.8637 16.4623L15.2421 13.4862C14.9333 13.447 14.6228 13.5013 14.3491 13.6379L15.6889 16.3222ZM14.8637 16.4623C14.5783 16.426 14.317 16.3062 14.1081 16.1271L16.0608 13.8496C15.8338 13.655 15.5506 13.5255 15.2421 13.4862L14.8637 16.4623ZM14.103 16.1227C14.2205 16.2244 14.3448 16.3272 14.4719 16.4264L16.3182 14.0618C16.2341 13.9961 16.1486 13.9256 16.0659 13.8541L14.103 16.1227ZM14.4686 16.4238C14.2809 16.2764 14.1376 16.0884 14.045 15.881L16.7843 14.6578C16.6828 14.4304 16.526 14.225 16.3215 14.0644L14.4686 16.4238ZM14.045 15.881C13.9526 15.674 13.9115 15.4499 13.9225 15.2275L16.9188 15.3754C16.9309 15.1309 16.8857 14.8849 16.7843 14.6578L14.045 15.881ZM13.9225 15.2275C13.9335 15.0051 13.9965 14.7851 14.1103 14.5865L16.7128 16.0789C16.8375 15.8614 16.9068 15.6199 16.9188 15.3754L13.9225 15.2275ZM14.1103 14.5865C14.2244 14.3875 14.388 14.2133 14.5923 14.0851L16.1867 16.6264C16.4092 16.4868 16.5879 16.2968 16.7128 16.0789L14.1103 14.5865ZM14.6056 14.0769C14.1808 14.3373 13.7367 14.559 13.2779 14.7402L14.3794 17.5306C15.0012 17.2852 15.6013 16.9853 16.1735 16.6346L14.6056 14.0769ZM13.2721 14.7425C13.0601 14.8272 12.8732 14.9556 12.7212 15.1149L14.8914 17.1862C14.7521 17.3322 14.5804 17.4503 14.3852 17.5283L13.2721 14.7425ZM12.7212 15.1149C12.5694 15.274 12.4554 15.4604 12.3826 15.66L15.201 16.688C15.1346 16.87 15.0305 17.0405 14.8914 17.1862L12.7212 15.1149ZM12.3826 15.66C12.3099 15.8594 12.2787 16.0704 12.2897 16.2801L15.2856 16.1232C15.2956 16.314 15.2673 16.5062 15.201 16.688L12.3826 15.66ZM12.2897 16.2801C12.3007 16.4898 12.3538 16.6973 12.448 16.8893L15.1413 15.568C15.2273 15.7432 15.2756 15.9323 15.2856 16.1232L12.2897 16.2801ZM12.4494 16.8923C12.7802 17.5627 13.1576 18.2074 13.5789 18.821L16.0521 17.123C15.7125 16.6284 15.4076 16.1077 15.1399 15.565L12.4494 16.8923ZM13.5747 18.8149C13.7561 19.0818 14.0217 19.2948 14.3433 19.4094L15.3502 16.5834C15.6466 16.689 15.8904 16.885 16.0563 17.1292L13.5747 18.8149ZM14.3433 19.4094C14.666 19.5244 15.0178 19.5301 15.3446 19.4251L14.4268 16.5689C14.7281 16.4721 15.0527 16.4774 15.3502 16.5834L14.3433 19.4094ZM15.3445 19.4251C17.3127 18.7928 19.1603 17.8134 20.8086 16.5316L18.967 14.1634C17.592 15.2327 16.0563 16.0454 14.4269 16.5689L15.3445 19.4251ZM20.8002 16.5381C20.9794 16.4009 21.1232 16.2291 21.2263 16.0379L18.5853 14.6147C18.6794 14.4402 18.811 14.2829 18.9754 14.1569L20.8002 16.5381ZM21.2263 16.0379C21.3292 15.847 21.3903 15.6388 21.4084 15.427L18.4193 15.1715C18.4358 14.9788 18.4914 14.789 18.5853 14.6147L21.2263 16.0379ZM21.4075 15.4368C21.8574 10.554 20.6462 6.28774 18.2158 2.53581L15.6979 4.16681C17.7848 7.3884 18.8046 10.9886 18.4202 15.1616L21.4075 15.4368Z" fill="#625f6e" mask="url(#path-2-inside-1_11_197)"/>
<path d="M6 10.5C6 11.3268 6.67758 12 7.49992 12C8.33534 12 8.99981 11.3268 8.99981 10.5C9.01295 9.6791 8.34193 9 7.49992 9C6.66444 9 6 9.67325 6 10.5Z" fill="#625f6e"/>
<path d="M11 10.5C11 11.3268 11.6776 12 12.4999 12C13.342 12 13.9998 11.3268 13.9998 10.5C14.013 9.6791 13.342 9 12.4999 9C11.6644 9 11 9.67325 11 10.5Z" fill="#625f6e"/>
</svg>
