<svg width="20" height="20" viewBox="0 0 20 20" fill="none" xmlns="http://www.w3.org/2000/svg">
<rect width="20" height="20" fill="white"/>
<path d="M17.982 1.10174C18.2323 1.004 18.5046 0.975988 18.7697 1.02071C19.0348 1.06544 19.2826 1.18121 19.4864 1.35555C19.6902 1.52989 19.8423 1.75619 19.9262 2.01006C20.0101 2.26392 20.0227 2.53574 19.9627 2.79621L19.2682 2.63837L19.9627 2.79621L16.4897 17.8593C16.4325 18.1073 16.3116 18.3363 16.1386 18.5238C15.9656 18.7114 15.7465 18.851 15.5029 18.9291C15.2593 19.0072 14.9994 19.021 14.7487 18.9693C14.4981 18.9175 14.2653 18.8019 14.0731 18.6339L5.91764 11.5021L1.18867 10.5623C0.87556 10.5003 0.591093 10.3391 0.377858 10.103C0.164624 9.86685 0.0340935 9.56842 0.00581049 9.25239C-0.0224725 8.93636 0.0530133 8.61972 0.220966 8.34989C0.38892 8.08006 0.640304 7.87154 0.937483 7.75557L1.20862 8.43835L0.938222 7.75557L17.982 1.10174ZM18.5228 2.46877L1.47901 9.1226L6.40228 10.1005C6.52975 10.1258 6.64825 10.184 6.74582 10.2694L15.049 17.5319L18.5213 2.46951L18.5228 2.46877Z" fill="#625f6e"/>
<path d="M19.4264 1.36972C19.5411 1.52755 19.588 1.72418 19.5568 1.91638C19.5257 2.10858 19.419 2.28061 19.2602 2.39463L6.69047 11.4162C6.61178 11.4726 6.52268 11.5131 6.42825 11.5354C6.33382 11.5576 6.23591 11.5611 6.14011 11.5457C6.0443 11.5304 5.95248 11.4964 5.86989 11.4458C5.7873 11.3951 5.71556 11.3288 5.65875 11.2506C5.54403 11.0927 5.49713 10.896 5.52837 10.7037C5.55962 10.5114 5.66644 10.3394 5.82535 10.2253L18.395 1.2038C18.554 1.08989 18.7519 1.04339 18.9453 1.0745C19.1387 1.10562 19.3118 1.21181 19.4264 1.36972Z" fill="#625f6e"/>
<path d="M6.25746 10.0865C6.4534 10.0865 6.64131 10.1639 6.77986 10.3016C6.91841 10.4393 6.99625 10.626 6.99625 10.8207V16.7962L7.51857 17.3152L6.99625 16.7962L9.88195 13.9285C10.0213 13.7948 10.2079 13.7208 10.4016 13.7224C10.5953 13.7241 10.7806 13.8013 10.9176 13.9374C11.0546 14.0736 11.1323 14.2577 11.1339 14.4502C11.1356 14.6427 11.0612 14.8281 10.9266 14.9666L8.04089 17.8343L7.5496 17.3461L8.04089 17.8343C7.83425 18.0396 7.571 18.1794 7.28442 18.236C6.99784 18.2927 6.7008 18.2636 6.43085 18.1525C6.1609 18.0414 5.93015 17.8532 5.76779 17.6118C5.60543 17.3704 5.51874 17.0865 5.51868 16.7962V10.82C5.51868 10.6253 5.59651 10.4385 5.73506 10.3009C5.87361 10.1632 6.06152 10.0858 6.25746 10.0858V10.0865Z" fill="#625f6e"/>
</svg>
